<svg width="24" height="24" viewBox="0 0 24 24" fill="none" xmlns="http://www.w3.org/2000/svg">
<g id="Gps_fixed_fill">
<path id="Subtract" fill-rule="evenodd" clip-rule="evenodd" d="M12 19C15.866 19 19 15.866 19 12C19 8.13401 15.866 5 12 5C8.13401 5 5 8.13401 5 12C5 15.866 8.13401 19 12 19ZM12 15C13.6569 15 15 13.6569 15 12C15 10.3431 13.6569 9 12 9C10.3431 9 9 10.3431 9 12C9 13.6569 10.3431 15 12 15Z" fill="#0077DA"/>
<path id="Vector 84" d="M12 5V3" stroke="#0077DA" stroke-width="2" stroke-linecap="round"/>
<path id="Vector 86" d="M19 12L21 12" stroke="#0077DA" stroke-width="2" stroke-linecap="round"/>
<path id="Vector 85" d="M12 21L12 19" stroke="#0077DA" stroke-width="2" stroke-linecap="round"/>
<path id="Vector 87" d="M3 12H5" stroke="#0077DA" stroke-width="2" stroke-linecap="round"/>
</g>
</svg>
