<svg width="33" height="32" viewBox="0 0 33 32" fill="none" xmlns="http://www.w3.org/2000/svg">
<g id="vscode-icons:file-type-pdf2">
<path id="Vector" d="M24.5999 2.07202L30.1639 7.87202V29.928H9.37891V30H30.2349V7.94502L24.5999 2.07202Z" fill="#909090"/>
<path id="Vector_2" d="M24.5311 2H9.30811V29.928H30.1641V7.873L24.5311 2Z" fill="#F4F4F4"/>
<path id="Vector_3" d="M9.15489 3.5H2.76489V10.327H22.8649V3.5H9.15489Z" fill="#7A7B7C"/>
<path id="Vector_4" d="M22.972 10.2109H2.89502V3.37891H22.972V10.2109Z" fill="#DD2025"/>
<path id="Vector_5" d="M9.55212 4.53392H8.24512V9.33392H9.27312V7.71492L9.50012 7.72792C9.72076 7.72488 9.93938 7.68534 10.1471 7.61092C10.3297 7.54891 10.4976 7.44984 10.6401 7.31992C10.7863 7.19736 10.9011 7.04173 10.9751 6.86592C11.0764 6.57463 11.1122 6.26462 11.0801 5.95792C11.0744 5.73877 11.036 5.52171 10.9661 5.31392C10.9031 5.16373 10.8095 5.02834 10.6912 4.91641C10.5729 4.80448 10.4326 4.71848 10.2791 4.66392C10.1468 4.61493 10.0097 4.58007 9.87012 4.55992C9.76465 4.54274 9.65797 4.53405 9.55112 4.53392M9.36212 6.82792H9.27312V5.34792H9.46612C9.5513 5.34178 9.63677 5.35485 9.71622 5.38618C9.79566 5.41751 9.86706 5.46629 9.92512 5.52892C10.0454 5.68993 10.1097 5.88592 10.1081 6.08692C10.1081 6.33292 10.1081 6.55592 9.88612 6.71292C9.72622 6.80099 9.54415 6.8416 9.36212 6.82792ZM13.0331 4.52092C12.9221 4.52092 12.8141 4.52892 12.7381 4.53192L12.5001 4.53792H11.7201V9.33792H12.6381C12.9889 9.34694 13.3381 9.2875 13.6661 9.16292C13.9302 9.05862 14.164 8.88981 14.3461 8.67192C14.5246 8.45307 14.652 8.1972 14.7191 7.92292C14.798 7.61285 14.8363 7.29385 14.8331 6.97392C14.8527 6.59607 14.8235 6.21728 14.7461 5.84692C14.6721 5.57461 14.5351 5.32352 14.3461 5.11392C14.1979 4.94443 14.0156 4.80813 13.8111 4.71392C13.6359 4.63272 13.4516 4.57295 13.2621 4.53592C13.1868 4.52357 13.1105 4.51788 13.0341 4.51892M12.8521 8.45592H12.7521V5.39192H12.7651C12.9713 5.36808 13.1799 5.40529 13.3651 5.49892C13.5008 5.60725 13.6113 5.74372 13.6891 5.89892C13.7731 6.06225 13.8215 6.24152 13.8311 6.42492C13.8401 6.64492 13.8311 6.82492 13.8311 6.97392C13.8348 7.14555 13.8238 7.31718 13.7981 7.48692C13.7667 7.66098 13.7097 7.82946 13.6291 7.98692C13.5381 8.13376 13.4137 8.25709 13.2661 8.34692C13.1428 8.42692 12.9967 8.46417 12.8501 8.45292M17.9301 4.53792H15.5001V9.33792H16.5281V7.43392H17.8281V6.54192H16.5281V5.42992H17.9281V4.53792" fill="#464648"/>
<path id="Vector_6" d="M22.2809 20.255C22.2809 20.255 25.4689 19.677 25.4689 20.766C25.4689 21.855 23.4939 21.412 22.2809 20.255ZM19.9239 20.338C19.4173 20.4496 18.9237 20.6135 18.4509 20.827L18.8509 19.927C19.2509 19.027 19.6659 17.8 19.6659 17.8C20.1421 18.6041 20.6975 19.3586 21.3239 20.052C20.8523 20.1223 20.385 20.2184 19.9239 20.34V20.338ZM18.6619 13.838C18.6619 12.889 18.9689 12.63 19.2079 12.63C19.4469 12.63 19.7159 12.745 19.7249 13.569C19.647 14.3976 19.4735 15.2143 19.2079 16.003C18.843 15.3413 18.6546 14.5967 18.6609 13.841L18.6619 13.838ZM14.0129 24.354C13.0349 23.769 16.0639 21.968 16.6129 21.91C16.6099 21.911 15.0369 24.966 14.0129 24.354ZM26.3999 20.895C26.3899 20.795 26.2999 19.688 24.3299 19.735C23.5088 19.7206 22.6879 19.7785 21.8769 19.908C21.0908 19.1167 20.4141 18.2238 19.8649 17.253C20.2107 16.2523 20.4203 15.2096 20.4879 14.153C20.4589 12.953 20.1719 12.265 19.2519 12.275C18.3319 12.285 18.1979 13.09 18.3189 14.288C18.4374 15.0931 18.6609 15.8791 18.9839 16.626C18.9839 16.626 18.5589 17.949 17.9969 19.265C17.4349 20.581 17.0509 21.271 17.0509 21.271C16.0735 21.5888 15.1535 22.0615 14.3259 22.671C13.5019 23.438 13.1669 24.027 13.6009 24.616C13.9749 25.124 15.2839 25.239 16.4539 23.706C17.0745 22.9134 17.6424 22.081 18.1539 21.214C18.1539 21.214 19.9379 20.725 20.4929 20.591C21.0479 20.457 21.7189 20.351 21.7189 20.351C21.7189 20.351 23.3479 21.99 24.9189 21.932C26.4899 21.874 26.4139 20.993 26.4039 20.897" fill="#DD2025"/>
<path id="Vector_7" d="M24.4541 2.0769V7.9499H30.0871L24.4541 2.0769Z" fill="#909090"/>
<path id="Vector_8" d="M24.531 2V7.873H30.164L24.531 2Z" fill="#F4F4F4"/>
<path id="Vector_9" d="M9.47497 4.45702H8.16797V9.25702H9.19997V7.63902L9.42797 7.65202C9.64861 7.64897 9.86723 7.60944 10.075 7.53502C10.2576 7.47301 10.4254 7.37394 10.568 7.24402C10.713 7.12112 10.8268 6.96551 10.9 6.79002C11.0012 6.49873 11.0371 6.18872 11.005 5.88202C10.9993 5.66287 10.9608 5.4458 10.891 5.23802C10.828 5.08782 10.7344 4.95243 10.6161 4.84051C10.4978 4.72858 10.3574 4.64258 10.204 4.58802C10.0711 4.53854 9.9333 4.50335 9.79297 4.48302C9.6875 4.46584 9.58083 4.45715 9.47397 4.45702M9.28497 6.75102H9.19597V5.27102H9.38997C9.47515 5.26487 9.56062 5.27795 9.64007 5.30928C9.71952 5.34061 9.79091 5.38939 9.84897 5.45202C9.96929 5.61303 10.0336 5.80902 10.032 6.01002C10.032 6.25602 10.032 6.47902 9.80997 6.63602C9.65008 6.72409 9.468 6.7637 9.28597 6.75002M12.956 4.44402C12.845 4.44402 12.737 4.45202 12.661 4.45502L12.426 4.46102H11.646V9.26101H12.564C12.9148 9.27004 13.2639 9.2106 13.592 9.08602C13.8561 8.98171 14.0899 8.81291 14.272 8.59502C14.4504 8.37617 14.5778 8.1203 14.645 7.84602C14.7238 7.53594 14.7622 7.21695 14.759 6.89702C14.7785 6.51917 14.7493 6.14038 14.672 5.77002C14.5979 5.4977 14.4609 5.24662 14.272 5.03702C14.1238 4.86753 13.9415 4.73122 13.737 4.63702C13.5618 4.55581 13.3775 4.49605 13.188 4.45902C13.1126 4.44666 13.0363 4.44097 12.96 4.44202M12.778 8.37901H12.678V5.31502H12.691C12.8971 5.29118 13.1058 5.32838 13.291 5.42202C13.4266 5.53034 13.5372 5.66681 13.615 5.82202C13.6989 5.98535 13.7473 6.16462 13.757 6.34802C13.766 6.56802 13.757 6.74802 13.757 6.89702C13.7607 7.06864 13.7496 7.24027 13.724 7.41002C13.6925 7.58408 13.6356 7.75256 13.555 7.91002C13.4639 8.05686 13.3396 8.18019 13.192 8.27002C13.0687 8.35002 12.9225 8.38727 12.776 8.37602M17.853 4.46102H15.423V9.26101H16.451V7.35702H17.751V6.46502H16.451V5.35302H17.851V4.46102" fill="white"/>
</g>
</svg>
